<mxfile host="app.diagrams.net" modified="2023-08-21T12:09:31.551Z" agent="Mozilla/5.0 (Windows NT 10.0; Win64; x64) AppleWebKit/537.36 (KHTML, like Gecko) Chrome/115.0.0.0 Safari/537.36 Edg/115.0.1901.203" etag="mp2Kcj1AU8zWN_QiUggK" version="21.6.8" type="device">
  <diagram name="Страница 1" id="9Ughqy6ngr_In3AzHayw">
    <mxGraphModel dx="1163" dy="770" grid="1" gridSize="10" guides="1" tooltips="1" connect="1" arrows="1" fold="1" page="1" pageScale="1" pageWidth="827" pageHeight="1169" math="0" shadow="0">
      <root>
        <mxCell id="0" />
        <mxCell id="1" parent="0" />
        <mxCell id="Q1N4ayOsns1OkLjqD2p0-6" value="" style="edgeStyle=orthogonalEdgeStyle;rounded=0;orthogonalLoop=1;jettySize=auto;html=1;" parent="1" source="Q1N4ayOsns1OkLjqD2p0-1" target="Q1N4ayOsns1OkLjqD2p0-2" edge="1">
          <mxGeometry relative="1" as="geometry" />
        </mxCell>
        <mxCell id="Q1N4ayOsns1OkLjqD2p0-1" value="start" style="ellipse;whiteSpace=wrap;html=1;" parent="1" vertex="1">
          <mxGeometry x="254" y="40" width="120" height="80" as="geometry" />
        </mxCell>
        <mxCell id="Q1N4ayOsns1OkLjqD2p0-7" value="" style="edgeStyle=orthogonalEdgeStyle;rounded=0;orthogonalLoop=1;jettySize=auto;html=1;" parent="1" source="Q1N4ayOsns1OkLjqD2p0-2" edge="1">
          <mxGeometry relative="1" as="geometry">
            <mxPoint x="314" y="270" as="targetPoint" />
            <Array as="points">
              <mxPoint x="314" y="250" />
              <mxPoint x="315" y="250" />
              <mxPoint x="315" y="270" />
            </Array>
          </mxGeometry>
        </mxCell>
        <mxCell id="OCiWhAm0cJ8WeLy_WOka-12" style="edgeStyle=orthogonalEdgeStyle;rounded=0;orthogonalLoop=1;jettySize=auto;html=1;entryX=1.002;entryY=0.576;entryDx=0;entryDy=0;entryPerimeter=0;exitX=1;exitY=0.5;exitDx=0;exitDy=0;" edge="1" parent="1" source="OCiWhAm0cJ8WeLy_WOka-1" target="OCiWhAm0cJ8WeLy_WOka-11">
          <mxGeometry relative="1" as="geometry">
            <Array as="points">
              <mxPoint x="590" y="295" />
              <mxPoint x="590" y="680" />
            </Array>
          </mxGeometry>
        </mxCell>
        <mxCell id="Q1N4ayOsns1OkLjqD2p0-2" value="count = 0" style="rounded=0;whiteSpace=wrap;html=1;" parent="1" vertex="1">
          <mxGeometry x="236" y="140" width="156" height="70" as="geometry" />
        </mxCell>
        <mxCell id="Q1N4ayOsns1OkLjqD2p0-34" value="Метод FilterArray" style="text;html=1;align=center;verticalAlign=middle;resizable=0;points=[];autosize=1;strokeColor=none;fillColor=none;" parent="1" vertex="1">
          <mxGeometry x="520" y="75" width="120" height="30" as="geometry" />
        </mxCell>
        <mxCell id="OCiWhAm0cJ8WeLy_WOka-3" value="" style="edgeStyle=orthogonalEdgeStyle;rounded=0;orthogonalLoop=1;jettySize=auto;html=1;" edge="1" parent="1" source="OCiWhAm0cJ8WeLy_WOka-1" target="OCiWhAm0cJ8WeLy_WOka-2">
          <mxGeometry relative="1" as="geometry" />
        </mxCell>
        <mxCell id="OCiWhAm0cJ8WeLy_WOka-1" value="i = 0; i &amp;lt; array.Length; i ++" style="shape=hexagon;perimeter=hexagonPerimeter2;whiteSpace=wrap;html=1;fixedSize=1;" vertex="1" parent="1">
          <mxGeometry x="222" y="270" width="196" height="50" as="geometry" />
        </mxCell>
        <mxCell id="OCiWhAm0cJ8WeLy_WOka-5" value="" style="edgeStyle=orthogonalEdgeStyle;rounded=0;orthogonalLoop=1;jettySize=auto;html=1;" edge="1" parent="1" source="OCiWhAm0cJ8WeLy_WOka-2" target="OCiWhAm0cJ8WeLy_WOka-4">
          <mxGeometry relative="1" as="geometry" />
        </mxCell>
        <mxCell id="OCiWhAm0cJ8WeLy_WOka-9" style="edgeStyle=orthogonalEdgeStyle;rounded=0;orthogonalLoop=1;jettySize=auto;html=1;exitX=1;exitY=0.5;exitDx=0;exitDy=0;" edge="1" parent="1" source="OCiWhAm0cJ8WeLy_WOka-2">
          <mxGeometry relative="1" as="geometry">
            <mxPoint x="320" y="580" as="targetPoint" />
            <mxPoint x="370" y="395" as="sourcePoint" />
            <Array as="points">
              <mxPoint x="430" y="400" />
              <mxPoint x="430" y="580" />
            </Array>
          </mxGeometry>
        </mxCell>
        <mxCell id="OCiWhAm0cJ8WeLy_WOka-2" value="array[i].Length &amp;lt;= length" style="rhombus;whiteSpace=wrap;html=1;" vertex="1" parent="1">
          <mxGeometry x="230" y="360" width="180" height="80" as="geometry" />
        </mxCell>
        <mxCell id="OCiWhAm0cJ8WeLy_WOka-7" style="edgeStyle=orthogonalEdgeStyle;rounded=0;orthogonalLoop=1;jettySize=auto;html=1;entryX=0;entryY=0.5;entryDx=0;entryDy=0;" edge="1" parent="1" source="OCiWhAm0cJ8WeLy_WOka-4" target="OCiWhAm0cJ8WeLy_WOka-1">
          <mxGeometry relative="1" as="geometry">
            <mxPoint x="220" y="300" as="targetPoint" />
            <Array as="points">
              <mxPoint x="320" y="590" />
              <mxPoint x="150" y="590" />
              <mxPoint x="150" y="295" />
            </Array>
          </mxGeometry>
        </mxCell>
        <mxCell id="OCiWhAm0cJ8WeLy_WOka-4" value="count ++" style="rounded=0;whiteSpace=wrap;html=1;" vertex="1" parent="1">
          <mxGeometry x="260" y="490" width="120" height="60" as="geometry" />
        </mxCell>
        <mxCell id="OCiWhAm0cJ8WeLy_WOka-6" value="yes" style="text;html=1;align=center;verticalAlign=middle;resizable=0;points=[];autosize=1;strokeColor=none;fillColor=none;" vertex="1" parent="1">
          <mxGeometry x="320" y="438" width="40" height="30" as="geometry" />
        </mxCell>
        <mxCell id="OCiWhAm0cJ8WeLy_WOka-10" value="no" style="text;html=1;align=center;verticalAlign=middle;resizable=0;points=[];autosize=1;strokeColor=none;fillColor=none;" vertex="1" parent="1">
          <mxGeometry x="430" y="438" width="40" height="30" as="geometry" />
        </mxCell>
        <mxCell id="OCiWhAm0cJ8WeLy_WOka-15" value="" style="edgeStyle=orthogonalEdgeStyle;rounded=0;orthogonalLoop=1;jettySize=auto;html=1;" edge="1" parent="1" source="OCiWhAm0cJ8WeLy_WOka-11" target="OCiWhAm0cJ8WeLy_WOka-14">
          <mxGeometry relative="1" as="geometry" />
        </mxCell>
        <mxCell id="OCiWhAm0cJ8WeLy_WOka-11" value="string[]newArray = new string[count]&lt;br&gt;index = 0" style="rounded=0;whiteSpace=wrap;html=1;" vertex="1" parent="1">
          <mxGeometry x="242" y="640" width="156" height="70" as="geometry" />
        </mxCell>
        <mxCell id="OCiWhAm0cJ8WeLy_WOka-17" value="" style="edgeStyle=orthogonalEdgeStyle;rounded=0;orthogonalLoop=1;jettySize=auto;html=1;" edge="1" parent="1" source="OCiWhAm0cJ8WeLy_WOka-14" target="OCiWhAm0cJ8WeLy_WOka-16">
          <mxGeometry relative="1" as="geometry" />
        </mxCell>
        <mxCell id="OCiWhAm0cJ8WeLy_WOka-25" style="edgeStyle=orthogonalEdgeStyle;rounded=0;orthogonalLoop=1;jettySize=auto;html=1;exitX=1;exitY=0.5;exitDx=0;exitDy=0;entryX=0.998;entryY=0.598;entryDx=0;entryDy=0;entryPerimeter=0;" edge="1" parent="1" source="OCiWhAm0cJ8WeLy_WOka-14" target="OCiWhAm0cJ8WeLy_WOka-24">
          <mxGeometry relative="1" as="geometry">
            <Array as="points">
              <mxPoint x="630" y="785" />
              <mxPoint x="630" y="1186" />
            </Array>
          </mxGeometry>
        </mxCell>
        <mxCell id="OCiWhAm0cJ8WeLy_WOka-14" value="i = 0; i &amp;lt; array.Length; i ++" style="shape=hexagon;perimeter=hexagonPerimeter2;whiteSpace=wrap;html=1;fixedSize=1;" vertex="1" parent="1">
          <mxGeometry x="222" y="760" width="196" height="50" as="geometry" />
        </mxCell>
        <mxCell id="OCiWhAm0cJ8WeLy_WOka-19" value="" style="edgeStyle=orthogonalEdgeStyle;rounded=0;orthogonalLoop=1;jettySize=auto;html=1;" edge="1" parent="1" source="OCiWhAm0cJ8WeLy_WOka-16" target="OCiWhAm0cJ8WeLy_WOka-18">
          <mxGeometry relative="1" as="geometry" />
        </mxCell>
        <mxCell id="OCiWhAm0cJ8WeLy_WOka-22" style="edgeStyle=orthogonalEdgeStyle;rounded=0;orthogonalLoop=1;jettySize=auto;html=1;" edge="1" parent="1" source="OCiWhAm0cJ8WeLy_WOka-16">
          <mxGeometry relative="1" as="geometry">
            <mxPoint x="320" y="1070" as="targetPoint" />
            <Array as="points">
              <mxPoint x="571" y="890" />
              <mxPoint x="571" y="1070" />
            </Array>
          </mxGeometry>
        </mxCell>
        <mxCell id="OCiWhAm0cJ8WeLy_WOka-16" value="array[i].Length &amp;lt;= length" style="rhombus;whiteSpace=wrap;html=1;" vertex="1" parent="1">
          <mxGeometry x="230" y="850" width="180" height="80" as="geometry" />
        </mxCell>
        <mxCell id="OCiWhAm0cJ8WeLy_WOka-21" style="edgeStyle=orthogonalEdgeStyle;rounded=0;orthogonalLoop=1;jettySize=auto;html=1;" edge="1" parent="1" source="OCiWhAm0cJ8WeLy_WOka-18">
          <mxGeometry relative="1" as="geometry">
            <mxPoint x="220" y="780" as="targetPoint" />
            <Array as="points">
              <mxPoint x="322" y="1080" />
              <mxPoint x="120" y="1080" />
              <mxPoint x="120" y="780" />
            </Array>
          </mxGeometry>
        </mxCell>
        <mxCell id="OCiWhAm0cJ8WeLy_WOka-18" value="newArray[index] = array[i]&lt;br&gt;index ++" style="rounded=0;whiteSpace=wrap;html=1;" vertex="1" parent="1">
          <mxGeometry x="242" y="960" width="160" height="60" as="geometry" />
        </mxCell>
        <mxCell id="OCiWhAm0cJ8WeLy_WOka-20" value="yes" style="text;html=1;align=center;verticalAlign=middle;resizable=0;points=[];autosize=1;strokeColor=none;fillColor=none;" vertex="1" parent="1">
          <mxGeometry x="320" y="930" width="40" height="30" as="geometry" />
        </mxCell>
        <mxCell id="OCiWhAm0cJ8WeLy_WOka-23" value="no&lt;br&gt;" style="text;html=1;align=center;verticalAlign=middle;resizable=0;points=[];autosize=1;strokeColor=none;fillColor=none;" vertex="1" parent="1">
          <mxGeometry x="430" y="868" width="40" height="30" as="geometry" />
        </mxCell>
        <mxCell id="OCiWhAm0cJ8WeLy_WOka-24" value="return newArray" style="rounded=0;whiteSpace=wrap;html=1;" vertex="1" parent="1">
          <mxGeometry x="260" y="1150" width="120" height="60" as="geometry" />
        </mxCell>
      </root>
    </mxGraphModel>
  </diagram>
</mxfile>
